<?xml version="1.0" encoding="utf-8"?>
<!-- Generator: Adobe Illustrator 24.0.0, SVG Export Plug-In . SVG Version: 6.00 Build 0)  -->
<svg version="1.1" id="Layer_1" xmlns="http://www.w3.org/2000/svg" xmlns:xlink="http://www.w3.org/1999/xlink" x="0px" y="0px"
	 viewBox="0 0 1200 1200" style="enable-background:new 0 0 1200 1200;" xml:space="preserve">
<style type="text/css">
	.st0{fill:#FFFFFF;}
	.st1{fill:#FF4F1C;}
	.st2{fill:#6300FF;}
	.st3{fill:#00EF1C;}
	.st4{fill:#FFCE00;}
</style>
<g>
	<path d="M311.33,761.43h11.71v50.25h-11.71V761.43z M311.05,743.34h12.37v10.76h-12.37V743.34z"/>
	<path d="M341.69,761.43h11.13l0.57,12.47h0.66c2.38-8.56,7.81-13.43,15.33-13.43c9.89,0,17.04,5.82,17.04,21.52v29.7h-11.71v-28.56
		c0-8.65-3.43-12.08-9.52-12.08c-6.95,0-11.8,6.85-11.8,18.37v22.27h-11.71V761.43z"/>
	<path d="M403.91,761.43h11.13l0.57,12.47h0.66c2.38-8.56,7.81-13.43,15.33-13.43c9.89,0,17.04,5.82,17.04,21.52v29.7h-11.71v-28.56
		c0-8.65-3.43-12.08-9.52-12.08c-6.95,0-11.8,6.85-11.8,18.37v22.27h-11.71V761.43z"/>
	<path d="M487.55,803.69c8.66,0,12.19-7.81,12.19-17.14c0-9.24-3.43-17.13-12.19-17.13c-8.74,0-12.17,7.89-12.17,17.13
		C475.37,795.89,478.89,803.69,487.55,803.69 M463.56,786.56c0-15.51,8.57-26.09,23.99-26.09c15.52,0,23.99,10.58,23.99,26.09
		c0,15.51-8.47,26.08-23.99,26.08C472.14,812.63,463.56,802.07,463.56,786.56"/>
	<polygon points="520.47,761.43 532.94,761.43 545.02,802.17 545.31,802.17 557.4,761.43 569.86,761.43 554.25,811.68 
		536.07,811.68 	"/>
	<path d="M599.46,804.16c8.18,0,14.17-6.47,14.17-15.42v-2.18l-11.04,1.43c-8.56,1.14-12.47,4.57-12.47,9.13
		C590.11,801.4,593.54,804.16,599.46,804.16 M578.6,798.35c0-10.46,8.47-15.32,25.03-17.41l9.99-1.33
		c-0.28-7.42-5.41-10.76-11.04-10.76c-5.43,0-10.85,2.48-11.43,10.29l-10.56-1.25c0.85-11.03,10.28-17.42,22.07-17.42
		c14.19,0,22.38,7.15,22.38,21.05v30.17h-11.14l-0.57-11.79h-0.67c-1.71,6.18-7.34,12.74-17.04,12.74
		C585.36,812.63,578.6,806.54,578.6,798.35"/>
	<path d="M646.35,794.74v-23.61h-8.56v-9.33h3.62c3.71,0,5.05-1.9,5.24-5.61l0.56-10.94h10.85v16.18h16.19v9.7h-16.19v21.42
		c0,8.08,4.48,10.18,8.95,10.18c3.14,0,6.29-0.96,7.9-1.81l0.77,8.86c-2.1,1.33-7.04,2.85-12.19,2.85
		C655.21,812.63,646.35,808.93,646.35,794.74"/>
	<path d="M691.25,761.43h11.72v50.25h-11.72V761.43z M690.98,743.34h12.37v10.76h-12.37V743.34z"/>
	<path d="M743.03,803.69c8.65,0,12.19-7.81,12.19-17.14c0-9.24-3.43-17.13-12.19-17.13s-12.19,7.89-12.19,17.13
		C730.84,795.89,734.36,803.69,743.03,803.69 M719.04,786.56c0-15.51,8.56-26.09,23.99-26.09c15.51,0,23.98,10.58,23.98,26.09
		c0,15.51-8.47,26.08-23.98,26.08C727.61,812.63,719.04,802.07,719.04,786.56"/>
	<path d="M782.12,761.43h11.13l0.57,12.47h0.66c2.39-8.56,7.81-13.43,15.33-13.43c9.9,0,17.04,5.82,17.04,21.52v29.7h-11.71v-28.56
		c0-8.65-3.42-12.08-9.51-12.08c-6.97,0-11.81,6.85-11.81,18.37v22.27h-11.71V761.43z"/>
</g>
<rect x="187.77" y="490.96" width="51.19" height="203.89"/>
<rect x="187.77" y="418.14" width="51.19" height="52.32"/>
<rect x="187.77" y="760.53" class="st1" width="51.19" height="51.19"/>
<path d="M426.82,501.97c-59.33,1.79-64.29,49.02-64.29,54.18h122.44c0-2.78-0.4-50.81-55.56-54.18H426.82z M538.14,595.83H362.73
	c0.19,4.17-1.39,53.37,64.88,56.75h2.99c28.38-1.57,47.42-10.71,54.16-31.54h50.21c0,4.16-16.47,77.38-104.18,78.97h-4.37
	c-73.01-0.99-115.48-54.97-115.48-122.63c0-68.46,43.06-122.04,113.3-122.83h2.39C537.94,458.52,538.14,556.93,538.14,595.83"/>
<path d="M722.6,651.4c45.44,0,68.66-26.4,68.66-73.43s-23.21-73.22-68.66-73.22c-42.06,0-58.53,22.43-60.51,66.08v14.49
	c1.98,43.47,18.45,66.09,58.53,66.09H722.6z M722.6,455.34c71.24,0,119.66,52.99,119.66,122.63c0,69.66-48.41,122.83-119.66,122.83
	c-32.94,0-53.17-18.45-60.51-30.95v25.39h-51.2V387.48h51.2v97.03c7.34-10.92,25.99-29.17,58.53-29.17H722.6z"/>
<path d="M1012.23,647.22v47.63h-46.83c-48.82-0.2-48.82-49.41-48.82-51.4V503.96h-25.8V460.3h25.8v-43.05h51.19v43.05h41.88v43.66
	h-41.88v138.3c1.59,1.59,0,4.37,8.33,4.57L1012.23,647.22z"/>
</svg>
